<?xml version="1.0" encoding="UTF-8"?>
<svg xmlns="http://www.w3.org/2000/svg" xmlns:xlink="http://www.w3.org/1999/xlink" viewBox="0 0 60 60" width="60px" height="60px">
<g id="surface174531521">
<path style=" stroke:none;fill-rule:nonzero;fill:rgb(100%,49.019608%,63.921571%);fill-opacity:1;" d="M 30 6 C 16.746094 6 6 16.746094 6 30 C 6 43.253906 16.746094 54 30 54 C 43.253906 54 54 43.253906 54 30 C 54 16.746094 43.253906 6 30 6 Z M 42 32 L 32 32 L 32 42 C 32 43.105469 31.105469 44 30 44 C 28.894531 44 28 43.105469 28 42 L 28 32 L 18 32 C 16.894531 32 16 31.105469 16 30 C 16 28.894531 16.894531 28 18 28 L 28 28 L 28 18 C 28 16.894531 28.894531 16 30 16 C 31.105469 16 32 16.894531 32 18 L 32 28 L 42 28 C 43.105469 28 44 28.894531 44 30 C 44 31.105469 43.105469 32 42 32 Z M 42 32 "/>
</g>
</svg>
